Coordinates
version=1
nRows=13
nColumns=40
inDegrees=yes

Units are S.I. units (second, meters, Newtons, ...)
Angles are in degrees.

endheader
time	pelvis_tilt	pelvis_list	pelvis_rotation	pelvis_tx	pelvis_ty	pelvis_tz	hip_flexion_r	hip_adduction_r	hip_rotation_r	knee_angle_r	knee_angle_r_beta	ankle_angle_r	subtalar_angle_r	mtp_angle_r	hip_flexion_l	hip_adduction_l	hip_rotation_l	knee_angle_l	knee_angle_l_beta	ankle_angle_l	subtalar_angle_l	mtp_angle_l	lumbar_extension	lumbar_bending	lumbar_rotation	arm_flex_r	arm_add_r	arm_rot_r	elbow_flex_r	pro_sup_r	wrist_flex_r	wrist_dev_r	arm_flex_l	arm_add_l	arm_rot_l	elbow_flex_l	pro_sup_l	wrist_flex_l	wrist_dev_l
     27.60000000	     -5.97032525	     -5.82853559	      0.73511093	      1.03910137	      0.93287371	      0.40327065	     35.29882002	     -3.69904051	     -4.89553345	     69.91502233	     69.91502233	     -1.73747078	    -18.90681977	      9.53710104	     16.59481281	     -5.34105079	     -5.74069364	     21.48315154	     21.48315154	     12.82612273	    -12.15708767	      2.58140844	     -9.69307803	      6.98718139	      2.72370399	      3.32109399	    -12.05929002	     -9.06066420	     25.47057152	     46.16017003	      0.00000000	      0.00000000	     16.12976738	    -12.11518312	      1.58633972	     56.63211403	     46.48765563	      0.00000000	      0.00000000
     27.61164286	     -5.99894184	     -5.82865310	      0.37608684	      1.03795748	      0.93385197	      0.40352167	     36.38221956	     -3.49637589	     -4.90483524	     67.90665649	     67.90665649	     -1.47469989	    -18.67518761	      9.20622990	     15.70247277	     -5.33017231	     -5.88800238	     20.69256548	     20.69256548	     12.92967612	    -12.30518681	      2.84430517	     -9.91406834	      7.03477170	      2.98749866	      1.72308608	    -12.21639953	     -9.01801771	     24.58297533	     46.18940669	      0.00000000	      0.00000000	     17.21025506	    -12.19446506	      1.26963432	     57.90337353	     46.54402878	      0.00000000	      0.00000000
     27.62328571	     -6.00233500	     -5.82096095	      0.02684072	      1.03684480	      0.93472523	      0.40379320	     37.17776239	     -3.32296285	     -4.97204468	     65.47420895	     65.47420895	     -1.97990852	    -18.50902058	      6.60673822	     14.80146831	     -5.31602091	     -6.08437200	     19.92474043	     19.92474043	     12.98362723	    -12.41313645	      2.95203100	    -10.21073105	      7.04144614	      2.78590693	      0.38258086	    -12.26852849	     -9.08577354	     23.96244185	     46.25205967	      0.00000000	      0.00000000	     17.46943120	    -12.67603405	      0.40022455	     60.89142031	     46.69245665	      0.00000000	      0.00000000
     27.63492857	     -6.06022657	     -5.90970668	     -0.29373518	      1.03570826	      0.93545113	      0.40418134	     37.90989010	     -2.96823369	     -5.02218177	     62.85109140	     62.85109140	     -1.78690705	    -18.09011918	      6.52331777	     14.04861941	     -5.43757197	     -6.34934737	     19.29795812	     19.29795812	     13.15898656	    -12.28449469	      3.03532975	    -10.36083761	      7.16868871	      2.79592658	     -1.06516009	    -12.37152050	     -9.08722943	     23.35028083	     46.27124036	      0.00000000	      0.00000000	     18.47079959	    -12.93245597	      0.02922965	     61.91856603	     46.74626080	      0.00000000	      0.00000000
     27.64657143	     -6.00806812	     -5.94849165	     -0.65823293	      1.03467150	      0.93619398	      0.40463277	     38.32413238	     -2.62909776	     -5.00920487	     59.87446928	     59.87446928	     -1.77960323	    -17.55107497	      5.73805340	     13.11759545	     -5.49842271	     -6.67070598	     18.58147708	     18.58147708	     13.30828458	    -12.16769128	      3.14170155	    -10.74368450	      7.22898968	      3.23430263	     -2.69893749	    -12.50051710	     -9.12992005	     22.78561776	     46.29747547	      0.00000000	      0.00000000	     19.34340249	    -12.93656981	     -0.59116452	     64.06817097	     46.84034541	      0.00000000	      0.00000000
     27.65821429	     -6.10400333	     -6.02781560	     -0.95254269	      1.03357266	      0.93651150	      0.40508380	     38.62698038	     -2.33269021	     -5.16284815	     56.41866630	     56.41866630	     -2.25127356	    -16.93925357	      3.33494837	     12.46655380	     -5.59598142	     -6.88010267	     18.03865130	     18.03865130	     13.45153399	    -12.12419039	      3.13239760	    -10.92321130	      7.32536709	      2.96017446	     -4.04652074	    -12.58354879	     -9.29831260	     22.82513332	     46.32958447	      0.00000000	      0.00000000	     19.43784590	    -13.29879095	     -1.71676541	     67.04575453	     46.99476396	      0.00000000	      0.00000000
     27.66985714	     -6.14802730	     -6.21992092	     -1.20219389	      1.03249880	      0.93681260	      0.40566218	     38.68861513	     -1.89191175	     -5.34310853	     52.66634756	     52.66634756	     -2.02235893	    -15.86118823	      2.92646183	     11.80573599	     -5.81857495	     -6.98796020	     17.57422516	     17.57422516	     13.66850713	    -12.03915528	      3.13644064	    -11.14637488	      7.57131874	      3.07585284	     -5.30418954	    -12.69595974	     -9.30118147	     22.39798813	     46.34679940	      0.00000000	      0.00000000	     20.26343228	    -13.50436553	     -2.18735697	     68.25114787	     47.05943811	      0.00000000	      0.00000000
     27.68150000	     -6.26481044	     -6.34273638	     -1.44862764	      1.03149205	      0.93676450	      0.40630636	     38.62446164	     -1.56927795	     -5.64139837	     48.59284468	     48.59284468	     -1.78203948	    -14.51959566	      2.47870823	     11.28485003	     -5.97593418	     -7.16463639	     17.22991743	     17.22991743	     13.89653480	    -12.04657927	      3.09506020	    -11.21997636	      7.68726271	      3.08873504	     -6.57792068	    -12.80813127	     -9.34760734	     22.09375367	     46.35961484	      0.00000000	      0.00000000	     20.95104052	    -13.62839929	     -2.62258828	     69.60546966	     47.12374755	      0.00000000	      0.00000000
     27.69314286	     -6.39239223	     -6.44079210	     -1.68159740	      1.03061903	      0.93647884	      0.40702456	     38.20543111	     -1.25727848	     -6.02008249	     43.88638550	     43.88638550	     -2.53878922	    -13.44508920	     -0.97945798	     10.78108656	     -6.11568426	     -7.36271081	     16.91436889	     16.91436889	     14.12142763	    -12.00255534	      2.89107481	    -11.34479827	      7.78501479	      2.71245724	     -7.87389049	    -12.87281234	     -9.51046153	     22.95281220	     46.36379871	      0.00000000	      0.00000000	     20.79075644	    -13.98645765	     -4.00097092	     72.75726048	     47.30918446	      0.00000000	      0.00000000
     27.70478571	     -6.48999477	     -6.55478643	     -1.88875857	      1.02984660	      0.93610492	      0.40785171	     37.62163245	     -0.91918128	     -6.50005447	     39.13848947	     39.13848947	     -2.11719135	    -11.50251517	     -1.03390983	     10.26640033	     -6.26832822	     -7.48547638	     16.64817467	     16.64817467	     14.38760005	    -12.01192161	      2.77208119	    -11.42442734	      7.89826688	      2.94362593	     -9.03083638	    -12.93094371	     -9.47211081	     22.54635965	     46.37568140	      0.00000000	      0.00000000	     21.57952301	    -13.99796696	     -4.26462224	     73.75409729	     47.35739149	      0.00000000	      0.00000000
     27.71642857	     -6.64353783	     -6.65022202	     -2.07022353	      1.02927262	      0.93544972	      0.40877738	     36.86386606	     -0.55591316	     -7.07016007	     34.17397524	     34.17397524	     -1.78081352	     -9.48626306	     -0.81386559	      9.82389754	     -6.40955253	     -7.59190340	     16.42760894	     16.42760894	     14.67458506	    -12.02334559	      2.58687041	    -11.37279596	      7.98688724	      3.02213769	    -10.12302917	    -12.94326917	     -9.50363836	     22.39037481	     46.38067618	      0.00000000	      0.00000000	     22.16487137	    -14.10390317	     -4.53148781	     74.84075201	     47.40478253	      0.00000000	      0.00000000
     27.72807143	     -6.70101432	     -6.69597727	     -2.20029789	      1.02897416	      0.93470740	      0.40970877	     35.80514463	     -0.24142305	     -7.83049182	     29.16752136	     29.16752136	     -1.45381959	     -7.20810697	     -0.33662474	      9.27355603	     -6.49350220	     -7.70610159	     16.22779515	     16.22779515	     14.99663312	    -11.99628580	      2.31185814	    -11.41396787	      8.05371465	      3.10659997	    -11.21920543	    -12.94721245	     -9.57805596	     22.38655680	     46.38239238	      0.00000000	      0.00000000	     22.63608745	    -14.15426329	     -4.80387001	     76.09638062	     47.45548258	      0.00000000	      0.00000000
     27.73971429	     -6.82046175	     -6.66429250	     -2.36868869	      1.02889426	      0.93362650	      0.41094432	     34.73984046	      0.10950759	     -8.60848197	     24.38457414	     24.38457414	     -1.18626224	     -5.08417347	      0.55122313	      8.77861194	     -6.51589235	     -7.84652300	     16.05377970	     16.05377970	     15.31379507	    -12.00247740	      2.00564472	    -11.30144573	      7.91095376	      3.15107135	    -12.14857423	    -12.85599109	     -9.65552227	     22.42761862	     46.38188184	      0.00000000	      0.00000000	     23.04068082	    -14.25738569	     -5.02529502	     77.15144592	     47.49755542	      0.00000000	      0.00000000
